# xmcd CD database file
#
# Track frame offsets:
#	180
#	17155
#	50085
#	89028
#	112594
#	129551
#	146171
#	164511
#	179827
#	201244
#	218714
#	237449
#	251358
#
# Disc length: 3700 seconds
#
# Revision: 1
# Processed by: cddbd v1.5.1PL0 Copyright (c) Steve Scherf et al.
# Submitted via: CDex 1.51
#
DISCID=c40e720d
DTITLE=Various Artist - Blues Box Benefit Live At Van Gogh's Earlobe 1995
DYEAR=1995
DGENRE=Blues
TTITLE0=Hey Baby - Kick The Kat
TTITLE1=Cat Fish Boogie - Lil Fi And The Delta Rhythm Kings
TTITLE2=Early In The Morning - Cross The Road
TTITLE3=Trouble In The Wind - Matt Taylor
TTITLE4=The Door - Pacific Blue
TTITLE5=Butt Out - Mick Hadley and The Shakers
TTITLE6=End Of The Line - Doc Span and Ross Williams
TTITLE7=Stormy Monday - Max r&b
TTITLE8=The Only Way - The Ewen Mc Kenzie Blues Project
TTITLE9=Perlene - Johnny Hucker
TTITLE10=Sweet Home Chicago - Teraplane Tour
TTITLE11=Bora's Stomp - Phil Manning
TTITLE12=Twenty Two Twenty - Phil Manning and Matt Taylor
EXTD=YEAR: 1995
EXTT0=
EXTT1=
EXTT2=
EXTT3=
EXTT4=
EXTT5=
EXTT6=
EXTT7=
EXTT8=
EXTT9=
EXTT10=
EXTT11=
EXTT12=
PLAYORDER=
